<svg aria-hidden="true" style="position: absolute; width: 0; height: 0; overflow: hidden;" version="1.1" xmlns="http://www.w3.org/2000/svg" xmlns:xlink="http://www.w3.org/1999/xlink">
<defs>
<symbol id="icon-facebook" viewBox="0 0 32 32">
<title>facebook</title>
<path fill="#3a559f" style="fill: var(--color1, #3a559f)" d="M0 0v32h17.042v-12.361h-4.166v-5.046h4.166v-4.238c0-3.082 2.498-5.58 5.581-5.58h4.355v4.538h-3.116c-0.979 0-1.773 0.794-1.773 1.773v3.508h4.811l-0.665 5.046h-4.146v12.361h9.912v-32h-32z"></path>
</symbol>
<symbol id="icon-twitter" viewBox="0 0 32 32">
<title>twitter</title>
<path fill="#26a6d1" style="fill: var(--color2, #26a6d1)" d="M16 0c8.837 0 16 7.164 16 16 0 8.837-7.163 16-16 16s-16-7.163-16-16c0-8.836 7.163-16 16-16z"></path>
<path  d="M26.003 10.779c-0.699 0.302-1.451 0.505-2.24 0.597 0.806-0.469 1.424-1.21 1.715-2.095-0.754 0.435-1.588 0.75-2.477 0.919-0.711-0.735-1.724-1.194-2.846-1.194-2.152 0-3.898 1.693-3.898 3.783 0 0.297 0.034 0.586 0.101 0.863-3.24-0.158-6.114-1.665-8.036-3.954-0.336 0.559-0.528 1.208-0.528 1.902 0 1.312 0.688 2.472 1.734 3.149-0.64-0.020-1.24-0.189-1.767-0.474v0.048c0 1.834 1.344 3.363 3.128 3.711-0.327 0.086-0.671 0.133-1.027 0.133-0.251 0-0.495-0.023-0.733-0.068 0.496 1.504 1.936 2.598 3.643 2.628-1.335 1.016-3.016 1.62-4.843 1.62-0.315 0-0.625-0.018-0.931-0.053 1.727 1.074 3.775 1.701 5.978 1.701 7.172 0 11.094-5.768 11.094-10.768l-0.011-0.49c0.76-0.532 1.421-1.198 1.944-1.958z"></path>
</symbol>
<symbol id="icon-linkedin" viewBox="0 0 32 32">
<title>linkedin</title>
<path fill="#007ab9" style="fill: var(--color4, #007ab9)" d="M32 16c0 8.837-7.163 16-16 16s-16-7.163-16-16c0-8.837 7.163-16 16-16s16 7.163 16 16z"></path>
<path d="M25.56 17.287v6.596h-3.824v-6.154c0-1.545-0.552-2.601-1.937-2.601-1.057 0-1.684 0.71-1.962 1.398-0.101 0.246-0.127 0.587-0.127 0.932v6.424h-3.825c0 0 0.051-10.423 0-11.502h3.825v1.63c-0.008 0.013-0.019 0.025-0.025 0.038h0.025v-0.038c0.508-0.782 1.415-1.9 3.447-1.9 2.516 0 4.403 1.644 4.403 5.176v0zM9.884 6.836c-1.308 0-2.164 0.859-2.164 1.987 0 1.104 0.831 1.988 2.114 1.988h0.025c1.334 0 2.163-0.884 2.163-1.988-0.025-1.128-0.829-1.987-2.138-1.987v0zM7.948 23.884h3.823v-11.503h-3.823v11.503z"></path>
</symbol>
</defs>
</svg>
