<svg id="Corpo_Logo" data-name="Corpo Logo" xmlns="http://www.w3.org/2000/svg" width="208" height="60" viewBox="0 0 208 60">
  <metadata><?xpacket begin="﻿" id="W5M0MpCehiHzreSzNTczkc9d"?>
<x:xmpmeta xmlns:x="adobe:ns:meta/" x:xmptk="Adobe XMP Core 5.6-c142 79.160924, 2017/07/13-01:06:39        ">
   <rdf:RDF xmlns:rdf="http://www.w3.org/1999/02/22-rdf-syntax-ns#">
      <rdf:Description rdf:about=""/>
   </rdf:RDF>
</x:xmpmeta>
                                                                                                    
                                                                                                    
                                                                                                    
                                                                                                    
                                                                                                    
                                                                                                    
                                                                                                    
                                                                                                    
                                                                                                    
                                                                                                    
                                                                                                    
                                                                                                    
                                                                                                    
                                                                                                    
                                                                                                    
                                                                                                    
                                                                                                    
                                                                                                    
                                                                                                    
                                                                                                    
                           
<?xpacket end="w"?></metadata>
<defs>
    <style>
      .cls-1 {
        font-size: 34px;
        font-family: AvantGardeLT;
        font-weight: 500;
      }

      .cls-1, .cls-3 {
        fill: #016653;
      }

      .cls-1, .cls-2 {
        text-transform: uppercase;
      }

      .cls-2 {
        font-size: 10px;
        fill: #858789;
        font-family: OpenSans;
      }

      .cls-3, .cls-4 {
        fill-rule: evenodd;
      }

      .cls-4 {
        fill: #f7a41a;
      }
    </style>
  </defs>
  <text id="Corpo" class="cls-1" x="72" y="37">Corpo</text>
  <text id="Corporate_Template" data-name="Corporate Template" class="cls-2" x="74" y="53">Corporate Template</text>
  <path id="c" class="cls-3" d="M84.249,39.07a28.933,28.933,0,0,1,8.757,21.218,29.12,29.12,0,0,1-8.757,21.274L73.608,70.9a14.909,14.909,0,0,0,0-21.218Z" transform="translate(-33 -30)"/>
  <path id="c-2" data-name="c" class="cls-4" d="M32.995,59.977a28.807,28.807,0,0,0,8.8,21.191,28.888,28.888,0,0,0,21.222,8.82,29.358,29.358,0,0,0,21.278-8.654l0.111-.166a7.156,7.156,0,0,0,2.172-5.27,7.4,7.4,0,0,0-7.52-7.489,7.215,7.215,0,0,0-5.291,2.163,14.614,14.614,0,0,1-10.694,4.438A15.185,15.185,0,0,1,48.034,59.977,15.089,15.089,0,0,1,63.073,45a14.713,14.713,0,0,1,10.694,4.383,7.215,7.215,0,0,0,5.291,2.163,7.4,7.4,0,0,0,5.347-2.163,7.189,7.189,0,0,0,2.172-5.3,7.376,7.376,0,0,0-2.172-5.353l-0.111-.111a29.26,29.26,0,0,0-21.278-8.626A29.176,29.176,0,0,0,41.8,38.73,28.992,28.992,0,0,0,32.995,59.977Z" transform="translate(-33 -30)"/>
</svg>
