<svg aria-hidden="true" style="position: absolute; width: 0; height: 0; overflow: hidden;" version="1.1" xmlns="http://www.w3.org/2000/svg" xmlns:xlink="http://www.w3.org/1999/xlink">
<defs>
<symbol id="icon-Button" viewBox="0 0 32 32">
<path fill="#606060" style="fill: var(--color1, #606060)" d="M0 0v32h32v-32h-32zM0.821 0.821h30.359v30.359h-30.359v-30.359z"></path>
<path fill="#606060" style="fill: var(--color1, #606060)" d="M6.564 9.026h18.872v2.462h-18.872v-2.462zM10.667 14.769h14.769v2.462h-14.769v-2.462zM6.564 20.513h18.872v2.462h-18.872v-2.462z"></path>
</symbol>
<symbol id="icon-facebook" viewBox="0 0 32 32">
<path d="M22.71 0h-1.732c-4.813 0-8.729 3.916-8.729 8.729v3.684h-2.959c-0.305 0-0.552 0.247-0.552 0.552v0 4.414c0 0.305 0.247 0.552 0.552 0.552v0h2.958v13.518c0 0.305 0.247 0.552 0.552 0.552v0h4.414c0.305 0 0.552-0.247 0.552-0.552v0-13.518h4.39c0.305 0 0.552-0.247 0.552-0.552v0-4.414c0-0.305-0.247-0.552-0.552-0.552v0h-4.39v-3.684c0-1.771 1.441-3.212 3.212-3.212h1.732c0.305 0 0.552-0.247 0.552-0.552v0-4.414c0-0 0-0 0-0 0-0.305-0.247-0.551-0.552-0.551v0z"></path>
</symbol>
<symbol id="icon-google-plus" viewBox="0 0 32 32">
<path d="M28 14v-4h-2v4h-4v2h4v4h2v-4h4v-2zM10 14v4h5.658c-0.826 2.328-3.050 4-5.658 4-3.308 0-6-2.692-6-6s2.692-6 6-6c1.434 0 2.814 0.514 3.886 1.448l2.628-3.016c-1.8-1.568-4.112-2.432-6.514-2.432-5.514 0-10 4.486-10 10s4.486 10 10 10 10-4.486 10-10v-2h-10z"></path>
</symbol>
<symbol id="icon-twitter" viewBox="0 0 32 32">
<path d="M28.712 9.484c1.299-0.937 2.391-2.066 3.258-3.358l0.030-0.047v-0.001c-1.191 0.521-2.457 0.868-3.78 1.036 1.36-0.817 2.382-2.078 2.874-3.579l0.013-0.046c-1.198 0.722-2.591 1.273-4.076 1.574l-0.084 0.014c-1.2-1.28-2.901-2.078-4.789-2.078-3.622 0-6.559 2.936-6.559 6.559 0 0.002 0 0.003 0 0.005v-0c0 0.52 0.044 1.020 0.152 1.496-5.453-0.267-10.28-2.88-13.523-6.863-0.563 0.95-0.896 2.094-0.899 3.315v0.001c0 2.272 1.169 4.285 2.915 5.452-1.092-0.030-2.109-0.326-2.997-0.825l0.033 0.017v0.072c0.004 3.164 2.237 5.806 5.213 6.439l0.043 0.008c-0.535 0.147-1.116 0.216-1.72 0.216-0.42 0-0.844-0.024-1.241-0.112 0.849 2.597 3.263 4.508 6.129 4.571-2.215 1.744-5.045 2.797-8.121 2.797-0.005 0-0.010 0-0.014 0h0.001c-0.537 0-1.053-0.024-1.569-0.089 2.827 1.846 6.288 2.944 10.006 2.944 0.021 0 0.041-0 0.061-0h-0.003c11.577 0 19.123-9.659 18.648-19.516z"></path>
</symbol>
</defs>
</svg>
